<svg version="1.0" xmlns="http://www.w3.org/2000/svg" width="434.667" height="434.667" viewBox="0 0 326 326"><g fill="#26f0e6"><path d="M151.6 29.1c-23.7 2.1-46.4 10.9-66 25.6l-8.5 6.4 3.4 4.4c10.5 13.8 10.7 34.2.5 49-4.1 6-11.6 11.8-18.7 14.6-6 2.3-18.2 3.1-23.4 1.7-2.5-.7-2.7-.5-3.7 3.5-.6 2.3-1.6 8.9-2.3 14.7-3.3 29.2 4.4 62.4 20.3 87.3l3 4.7h9c38.4 0 96.7-23.1 145.5-57.7 19.9-14.1 42.1-34 53.7-48.2 6.3-7.7 16.4-23.4 17.3-26.9.7-3.1-2-8.9-10.2-21.2-22.2-33.5-57.4-54.5-97.2-57.9-6.5-.6-12.2-1-12.8-1-.5.1-5 .5-9.9 1z"/><path d="M40.9 57.4c-8.3 1.7-16.2 7.5-20.9 15.1-1.1 1.7-2.7 6-3.6 9.5-3.9 15.5 3.4 31.8 17.4 38.7 4.9 2.4 6.9 2.8 14.2 2.8 7.3 0 9.3-.4 14.2-2.8 6.5-3.2 11.6-8.4 15.5-15.9 2.4-4.6 2.7-6.5 2.8-14.3 0-7.2-.4-9.9-2.2-13.7C73.4 66.2 64.5 59 53.6 57.1c-3.3-.6-6.2-1.1-6.5-1-.3 0-3.1.6-6.2 1.3zM279.3 65c26.9 14.9 16.2 52.5-26.8 93.8-42.5 41-105.5 75.6-158 86.8-43.9 9.3-71.9-1.5-72-27.9v-4.9l-2.1 4.9c-1.2 2.6-2.6 7.2-3.3 10.1-2.5 11.7-.9 18.7 5.8 25.3 22.1 22 91.6 8.8 162.3-30.9 53.7-30.1 100-71.6 116.9-104.7 6.5-12.6 8.3-18.6 8.3-27.5.1-8.7-2.4-14.3-8.4-19.2-4.5-3.5-13.8-6.9-21-7.4l-5.5-.5 3.8 2.1z"/><path d="M272.5 75c2.5 3.3 6.6 9.2 9.1 13.2l4.4 7.2v-5.7c0-6-2.2-11.8-5.6-14.8-2.3-2-9.9-5.9-11.4-5.9-.6 0 1 2.7 3.5 6zM285 154.5c-44 49.7-126.4 98.2-191.9 112.9l-10.5 2.3 7.5 5c9 6.1 20.8 12.1 30.7 15.7 26.2 9.4 59.1 9.4 85.4 0 10.2-3.7 25.1-11.5 33.1-17.4l6.7-5-2.1-4.3c-1.5-2.8-2.4-6.7-2.7-12-.4-7.1-.2-8.2 2.7-14.2 3.6-7.2 7.2-10.7 14.9-14.3 4.5-2 6.4-2.3 12-2 3.7.3 7.5.8 8.4 1.3 1.4.6 2.2-.2 3.9-4.1 6.4-15 10.5-33.2 11.1-49.4.4-12.1-.1-23-.9-23-.5 0-4.2 3.8-8.3 8.5zM30.6 212.1c-2.1 10.6 1.9 19.6 10.6 24l4 2.1-3-5.4c-1.7-2.9-4.7-9.4-6.7-14.3-2.1-5-3.8-9.1-4-9.3-.1-.1-.5 1.2-.9 2.9z"/><path d="M261 230.6c-7.9 3.4-12.4 10.7-12.4 19.9 0 12.7 8.6 21.5 21.1 21.5 17.4-.1 27.4-20.4 16.9-34.3-5.9-7.8-16.9-10.9-25.6-7.1z"/></g></svg>